<svg width="769" height="629" viewBox="0 0 769 629" fill="none" xmlns="http://www.w3.org/2000/svg">
<g clip-path="url(#clip0_1113_1639)">
<path d="M522.5 0.600586H246.5C229.931 0.600586 216.5 14.032 216.5 30.6006V598.601C216.5 615.169 229.931 628.601 246.5 628.601H522.5C539.069 628.601 552.5 615.169 552.5 598.601V30.6006C552.5 14.032 539.069 0.600586 522.5 0.600586Z" fill="#90C3FF"/>
<path d="M522.5 0.600586H246.5C229.931 0.600586 216.5 14.032 216.5 30.6006V598.601C216.5 615.169 229.931 628.601 246.5 628.601H522.5C539.069 628.601 552.5 615.169 552.5 598.601V30.6006C552.5 14.032 539.069 0.600586 522.5 0.600586Z" fill="url(#paint0_linear_1113_1639)"/>
<path d="M385 424.601C445.475 424.601 494.5 375.576 494.5 315.101C494.5 254.625 445.475 205.601 385 205.601C324.525 205.601 275.5 254.625 275.5 315.101C275.5 375.576 324.525 424.601 385 424.601Z" fill="#006BE8"/>
<path d="M343.657 363.411L392.025 315.042L426.225 280.842L392.025 246.642V315.042" stroke="white" stroke-width="4" stroke-miterlimit="10" stroke-linecap="round" stroke-linejoin="round"/>
<path d="M343.657 266.675L392.025 315.043L426.225 349.243L392.025 383.443V315.043" stroke="white" stroke-width="4" stroke-miterlimit="10" stroke-linecap="round" stroke-linejoin="round"/>
<path d="M449.5 30.6006H316.5C311.529 30.6006 307.5 34.63 307.5 39.6006C307.5 44.5711 311.529 48.6006 316.5 48.6006H449.5C454.471 48.6006 458.5 44.5711 458.5 39.6006C458.5 34.63 454.471 30.6006 449.5 30.6006Z" fill="#78A9E2"/>
</g>
<path d="M0.243882 314.442C0.641757 305.917 1.0272 297.422 1.43751 288.926C1.48724 287.914 1.66131 286.886 1.83538 285.888C3.67555 275.262 5.20489 264.499 8.11435 254.22C10.6011 245.453 13.4608 236.791 16.6935 228.387C19.516 221.025 22.8979 213.936 26.3793 206.983C31.3652 196.991 37.1717 187.725 43.9356 179.381C47.8024 174.619 51.6568 169.812 55.7972 165.398C60.5717 160.319 66.6269 160.924 71.6998 166.487C76.064 171.263 77.0462 179.26 73.6394 185.11C71.5382 188.738 69.1012 192.154 66.5025 195.283C56.0956 207.814 47.5662 222.038 41.0883 237.94C37.0598 247.826 33.6903 258.105 31.2036 268.792C29.898 274.4 29.0401 280.053 28.4806 285.828C27.9459 291.284 26.9886 296.666 26.4415 302.123C25.2852 313.475 25.8074 324.766 27.4735 336.028C28.3065 341.606 28.5676 347.335 29.5996 352.852C31.4149 362.511 33.8892 371.959 37.3333 380.983C39.1238 385.684 40.5909 390.612 42.6673 395.131C47.131 404.836 51.8931 414.329 58.0974 422.597C63.046 429.188 68.2557 435.552 72.8561 442.49C79.0232 451.816 74.46 465.3 64.7743 467.114C60.6463 467.885 57.2893 465.799 54.3549 462.534C43.1149 450.033 33.2551 436.141 25.2976 420.299C19.4787 408.721 14.2814 396.764 10.6259 383.946C8.20139 375.465 6.23688 366.774 4.37184 358.067C3.11604 352.232 2.03433 346.292 1.51211 340.306C0.778532 331.735 0.629321 323.089 0.231445 314.457L0.243882 314.442Z" fill="#006BE8"/>
<path d="M57.3398 314.624C56.917 304.3 58.6701 294.293 60.3114 284.271C61.8034 275.096 64.5512 266.434 67.5726 257.864C71.9617 245.408 78.2034 234.388 85.2283 224.004C88.5357 219.121 92.129 214.511 96.4559 210.823C102.113 206.001 108.293 206.998 113.229 213.634C116.934 218.622 116.835 227.828 112.943 233.194C108.914 238.772 104.538 244.017 100.845 249.897C95.8964 257.773 91.9176 266.389 89.0703 275.806C86.5463 284.15 84.818 292.691 83.9601 301.443C82.953 311.661 83.0524 321.91 84.4574 332.128C85.7008 341.183 87.6777 349.965 90.6991 358.34C94.4168 368.618 99.3156 378.051 105.595 386.365C108.007 389.569 110.543 392.653 112.856 395.948C116.2 400.695 116.859 406.257 115.007 411.926C113.179 417.534 109.325 420.572 104.5 421.403C101.181 421.978 98.0971 420.33 95.7223 417.7C91.6938 413.256 87.6778 408.676 84.1963 403.612C78.6012 395.51 73.7397 386.727 69.8355 377.219C64.6134 364.492 60.8958 351.144 58.9934 337.102C58.608 334.305 58.0609 331.524 57.8744 328.712C57.576 324.026 57.5138 319.31 57.3522 314.609L57.3398 314.624Z" fill="#006BE8"/>
<path d="M142.373 375.314C140.036 375.435 136.853 373.032 134.068 369.782C127.876 362.557 122.89 354.258 119.645 344.538C115.927 333.383 113.627 321.804 114.547 309.726C115.368 299.039 117.556 288.685 121.796 279.116C125.053 271.77 129.169 265.21 134.13 259.481C135.858 257.485 137.959 255.747 140.148 254.583C146.265 251.348 153.377 255.248 155.851 262.791C157.99 269.306 156.262 274.687 152.668 279.57C149.038 284.482 145.643 289.607 143.517 295.759C137.412 313.414 140.235 332.4 150.331 346.186C151.587 347.894 152.892 349.587 153.962 351.461C156.796 356.419 157.381 361.74 154.981 367.182C152.693 372.397 149.063 375.163 142.373 375.33V375.314Z" fill="#006BE8"/>
<path d="M768.756 314.759C768.358 323.284 767.973 331.78 767.562 340.275C767.513 341.288 767.339 342.315 767.165 343.313C765.324 353.94 763.795 364.702 760.886 374.981C758.399 383.748 755.539 392.41 752.306 400.814C749.484 408.176 746.102 415.265 742.621 422.219C737.635 432.21 731.828 441.476 725.064 449.82C721.198 454.582 717.343 459.389 713.203 463.803C708.428 468.882 702.373 468.277 697.3 462.714C692.936 457.938 691.954 449.941 695.361 444.091C697.462 440.464 699.899 437.047 702.497 433.918C712.904 421.387 721.434 407.163 727.912 391.261C731.94 381.375 735.31 371.096 737.796 360.409C739.102 354.801 739.96 349.148 740.519 343.374C741.054 337.917 742.011 332.535 742.559 327.079C743.715 315.726 743.193 304.435 741.527 293.173C740.693 287.596 740.432 281.867 739.4 276.349C737.585 266.69 735.111 257.243 731.667 248.218C729.876 243.517 728.409 238.589 726.333 234.07C721.869 224.365 717.107 214.872 710.903 206.604C705.954 200.013 700.744 193.65 696.144 186.711C689.977 177.385 694.54 163.901 704.226 162.087C708.354 161.317 711.711 163.403 714.645 166.668C725.885 179.169 735.745 193.06 743.702 208.902C749.521 220.481 754.719 232.437 758.374 245.256C760.799 253.736 762.763 262.427 764.628 271.134C765.884 276.969 766.966 282.91 767.488 288.896C768.221 297.466 768.371 306.113 768.769 314.744L768.756 314.759Z" fill="#006BE8"/>
<path d="M711.66 314.577C712.083 324.901 710.33 334.908 708.689 344.93C707.197 354.105 704.449 362.767 701.427 371.338C697.038 383.793 690.797 394.813 683.772 405.197C680.464 410.08 676.871 414.69 672.544 418.379C666.887 423.201 660.707 422.203 655.771 415.567C652.066 410.579 652.165 401.373 656.057 396.007C660.086 390.429 664.462 385.184 668.155 379.304C673.104 371.428 677.082 362.812 679.93 353.395C682.454 345.051 684.182 336.51 685.04 327.758C686.047 317.54 685.948 307.291 684.543 297.073C683.299 288.018 681.322 279.236 678.301 270.862C674.583 260.583 669.684 251.15 663.405 242.837C660.993 239.632 658.457 236.548 656.144 233.253C652.8 228.507 652.141 222.944 653.993 217.275C655.821 211.667 659.675 208.629 664.5 207.798C667.819 207.223 670.903 208.871 673.278 211.501C677.306 215.945 681.322 220.525 684.804 225.589C690.399 233.691 695.26 242.474 699.164 251.982C704.387 264.709 708.104 278.057 710.007 292.1C710.392 294.896 710.939 297.677 711.126 300.489C711.424 305.175 711.486 309.891 711.648 314.592L711.66 314.577Z" fill="#006BE8"/>
<path d="M626.627 253.887C628.964 253.766 632.147 256.169 634.932 259.419C641.124 266.645 646.11 274.943 649.355 284.663C653.073 295.819 655.373 307.397 654.453 319.475C653.632 330.162 651.444 340.517 647.204 350.085C643.947 357.431 639.831 363.992 634.87 369.721C633.142 371.716 631.041 373.454 628.852 374.618C622.735 377.853 615.623 373.953 613.149 366.41C611.01 359.895 612.738 354.514 616.332 349.631C619.962 344.719 623.357 339.594 625.483 333.442C631.588 315.787 628.765 296.801 618.669 283.015C617.413 281.307 616.108 279.614 615.038 277.74C612.204 272.782 611.619 267.461 614.019 262.019C616.307 256.804 619.937 254.038 626.627 253.872V253.887Z" fill="#006BE8"/>
<defs>
<linearGradient id="paint0_linear_1113_1639" x1="431.54" y1="484.789" x2="440.556" y2="482.779" gradientUnits="userSpaceOnUse">
<stop stop-color="#93D3FC"/>
<stop offset="1" stop-color="#7ECBFC"/>
</linearGradient>
<clipPath id="clip0_1113_1639">
<rect width="336" height="628" fill="white" transform="translate(216.5 0.600586)"/>
</clipPath>
</defs>
</svg>
