<?xml version="1.0" encoding="utf-8"?>
<svg viewBox="460.349 207 85.999 85.999" xmlns="http://www.w3.org/2000/svg">
  <path d="M 47.401 0.154 C 48.509 0.301 49.62 0.432 50.727 0.586 C 52.688 0.882 54.62 1.343 56.502 1.967 C 59.612 2.948 62.598 4.286 65.401 5.953 C 67.249 7.042 69.009 8.272 70.667 9.633 C 71.405 10.245 72.134 10.874 72.817 11.545 C 73.968 12.677 75.129 13.807 76.194 15.017 C 77.115 16.056 77.962 17.159 78.729 18.316 C 79.849 20.017 80.894 21.771 81.904 23.541 C 82.424 24.453 82.821 25.44 83.235 26.41 C 83.605 27.274 83.95 28.151 84.253 29.04 C 84.534 29.862 84.765 30.702 84.98 31.545 C 85.32 32.884 85.666 34.224 85.937 35.579 C 86.122 36.502 86.182 37.451 86.302 38.388 C 86.73 44.07 86.33 47.352 86.302 47.54 C 86.177 48.394 86.107 49.257 85.947 50.103 C 85.701 51.401 85.422 52.693 85.109 53.978 C 84.879 54.943 84.598 55.895 84.266 56.83 C 83.719 58.335 83.17 59.846 82.498 61.297 C 81.818 62.747 81.059 64.158 80.226 65.526 C 79.503 66.718 78.708 67.865 77.846 68.962 C 76.769 70.339 75.642 71.683 74.456 72.968 C 73.105 74.434 71.615 75.765 70.006 76.943 C 68.767 77.849 67.568 78.828 66.253 79.61 C 64.599 80.596 62.869 81.468 61.123 82.288 C 59.736 82.923 58.317 83.488 56.872 83.98 C 55.761 84.371 54.606 84.644 53.467 84.952 C 52.931 85.096 52.387 85.216 51.84 85.316 C 45.584 86.571 37.884 85.717 37.756 85.696 C 36.948 85.564 36.135 85.461 35.33 85.315 C 34.652 85.192 33.976 85.048 33.31 84.872 C 32.481 84.652 31.663 84.387 30.839 84.147 C 30.211 83.963 29.563 83.835 28.957 83.598 C 27.769 83.133 26.593 82.632 25.431 82.104 C 24.484 81.673 23.541 81.221 22.638 80.705 C 21.78 80.211 20.949 79.669 20.151 79.082 C 18.573 77.934 16.96 76.819 15.482 75.55 C 14.092 74.333 12.777 73.034 11.543 71.658 C 10.499 70.519 9.583 69.261 8.63 68.04 C 8.023 67.261 7.407 66.481 6.872 65.652 C 5.603 63.704 4.54 61.63 3.699 59.462 C 3.021 57.691 2.433 55.88 1.882 54.064 C 1.357 52.264 0.995 50.421 0.799 48.557 C 0.186 43.518 0.704 38.257 0.71 38.216 C 0.801 37.56 0.882 36.902 0.972 36.246 C 1.272 34.175 1.745 32.132 2.384 30.14 C 4.334 23.855 7.709 18.105 12.246 13.339 C 13.423 12.091 14.681 10.922 16.013 9.841 C 17.574 8.593 19.229 7.454 20.902 6.356 C 23.441 4.69 26.197 3.445 29.056 2.431 C 32.155 1.311 35.38 0.576 38.659 0.242 C 43.059 -0.242 47.361 0.149 47.401 0.154 Z M 56.159 33.403 C 57.028 33.283 57.421 33.791 57.644 34.393 C 57.898 35.056 58.069 35.747 58.156 36.452 C 58.242 37.245 58.376 38.073 58.029 38.844 C 57.76 39.462 57.454 40.062 57.111 40.642 C 56.725 41.276 56.176 41.741 55.389 41.788 C 55.104 41.806 55.032 41.93 54.971 42.191 C 54.69 43.397 54.418 44.608 54.063 45.794 C 53.651 47.122 52.949 48.342 52.008 49.365 C 51.888 49.51 51.821 49.69 51.817 49.877 C 51.819 50.966 51.85 52.055 51.867 53.144 C 51.878 53.915 51.867 54.686 51.901 55.455 C 51.909 55.633 52.018 55.896 52.158 55.965 C 53.65 56.707 55.143 57.45 56.666 58.126 C 58.2 58.807 59.767 59.413 61.321 60.049 C 62.504 60.532 63.692 61.002 64.871 61.492 C 66.809 62.298 68.766 63.065 70.669 63.947 C 71.624 64.39 72.483 65.044 73.375 65.618 C 73.588 65.755 73.759 65.798 73.907 65.571 C 74.74 64.289 75.614 63.031 76.385 61.713 C 77.63 59.602 78.643 57.363 79.407 55.034 C 79.914 53.469 80.277 51.852 80.636 50.244 C 81.124 47.988 81.357 45.684 81.329 43.376 C 81.317 40.898 81.175 38.432 80.646 36.002 C 80.41 34.914 80.233 33.808 79.917 32.744 C 79.524 31.404 79.06 30.085 78.528 28.793 C 77.667 26.672 76.602 24.639 75.347 22.723 C 74.232 21.049 73.084 19.405 71.696 17.945 C 70.831 17.034 69.952 16.131 69.021 15.289 C 68.048 14.393 67.028 13.55 65.965 12.763 C 64.677 11.809 63.338 10.926 61.952 10.119 C 59.927 8.957 57.783 8.015 55.557 7.31 C 54.353 6.932 53.145 6.556 51.918 6.276 C 50.788 6.035 49.648 5.85 48.5 5.723 C 47.366 5.562 46.223 5.465 45.077 5.433 C 43.402 5.417 41.721 5.452 40.052 5.586 C 38.581 5.716 37.118 5.926 35.67 6.215 C 34.537 6.44 33.418 6.738 32.322 7.105 C 30.902 7.546 29.507 8.062 28.142 8.652 C 26.081 9.581 24.082 10.648 22.251 11.991 C 21.149 12.799 20.033 13.596 19.004 14.49 C 17.979 15.379 17.057 16.386 16.086 17.337 C 14.712 18.682 13.495 20.179 12.458 21.799 C 11.602 23.136 10.754 24.485 10.011 25.886 C 8.661 28.412 7.649 31.104 7.001 33.894 C 6.636 35.485 6.276 37.087 6.085 38.704 C 5.913 40.275 5.848 41.855 5.892 43.434 C 5.913 45.209 6.035 46.981 6.254 48.742 C 6.447 50.198 6.856 51.627 7.203 53.06 C 7.749 55.311 8.611 57.454 9.605 59.535 C 10.24 60.806 10.94 62.044 11.701 63.243 C 12.214 64.082 12.821 64.864 13.382 65.673 C 13.515 65.864 13.635 65.909 13.858 65.766 C 14.787 65.175 15.694 64.534 16.677 64.047 C 18.166 63.309 19.699 62.654 21.236 62.02 C 22.721 61.407 24.245 60.888 25.733 60.282 C 27.37 59.616 28.994 58.916 30.609 58.197 C 32.173 57.5 33.723 56.77 35.265 56.025 C 35.36 55.967 35.44 55.888 35.5 55.794 C 35.56 55.701 35.599 55.595 35.613 55.485 C 35.668 54.142 35.684 52.798 35.706 51.455 C 35.715 50.911 35.712 50.367 35.703 49.823 C 35.706 49.702 35.674 49.583 35.611 49.48 C 35.255 48.989 34.864 48.522 34.518 48.024 C 33.764 46.937 33.336 45.706 33.023 44.436 C 32.806 43.559 32.645 42.67 32.465 41.817 C 32.131 41.751 31.77 41.759 31.493 41.612 C 30.249 40.949 29.613 39.768 29.378 38.488 C 29.125 37.128 29.284 35.724 29.836 34.456 C 30.112 33.822 30.492 33.315 31.332 33.386 C 31.332 33.176 31.348 32.996 31.33 32.819 C 31.222 31.791 31.121 30.763 30.989 29.739 C 30.784 28.152 30.7 26.589 31.145 25.007 C 31.544 23.545 32.249 22.185 33.214 21.016 C 34.146 19.893 35.264 18.939 36.52 18.196 C 38.119 17.25 39.896 16.644 41.74 16.415 C 43.601 16.172 45.491 16.272 47.315 16.71 C 49.335 17.185 51.212 18.137 52.787 19.488 C 54.177 20.649 55.267 22.129 55.965 23.801 C 56.401 24.855 56.735 25.945 56.675 27.091 C 56.587 28.79 56.422 30.484 56.286 32.179 C 56.255 32.565 56.207 32.949 56.159 33.403 Z" fill="#32427E" transform="matrix(1, 0, 0, 1, 459.848877, 207.000275)"/>
</svg>