<svg width="87" height="86" viewBox="0 0 87 86" fill="none" xmlns="http://www.w3.org/2000/svg">
<g clip-path="url(#clip0_1039_1601)">
<path d="M47.401 0.154485C48.5094 0.301057 49.62 0.431913 50.7272 0.586341C52.6877 0.881636 54.6195 1.34342 56.5016 1.96668C59.6115 2.94848 62.5977 4.286 65.4009 5.95266C67.2486 7.04169 69.0092 8.27197 70.6672 9.63251C71.405 10.2448 72.1337 10.8735 72.8168 11.5452C73.9683 12.6773 75.1285 13.8074 76.1942 15.0174C77.1148 16.0564 77.9618 17.1586 78.7287 18.3157C79.8488 20.017 80.8939 21.7709 81.9036 23.5406C82.4244 24.4534 82.8207 25.4404 83.2352 26.4101C83.6046 27.2741 83.9501 28.151 84.2532 29.0402C84.5335 29.8622 84.7653 30.7023 84.9795 31.5449C85.3201 32.8841 85.6656 34.2243 85.9369 35.5785C86.1219 36.5023 86.1822 37.451 86.3022 38.388C86.7299 44.0695 86.3303 47.3524 86.3022 47.5402C86.1771 48.3936 86.1073 49.2569 85.947 50.1031C85.701 51.4014 85.4216 52.6931 85.1089 53.9782C84.8792 54.9432 84.5976 55.8952 84.2655 56.83C83.7185 58.335 83.1701 59.8461 82.4977 61.2968C81.8175 62.7465 81.0591 64.1582 80.2259 65.5257C79.5025 66.7178 78.7078 67.8652 77.846 68.9615C76.7686 70.3385 75.6415 71.6831 74.4558 72.9676C73.1048 74.4337 71.6145 75.765 70.0059 76.9427C68.7669 77.8493 67.5677 78.8279 66.2532 79.6103C64.5989 80.5956 62.8686 81.4681 61.1232 82.288C59.7357 82.9234 58.3169 83.4882 56.8724 83.9804C55.7606 84.3713 54.606 84.6443 53.4668 84.9517C52.9308 85.0961 52.3866 85.2164 51.8404 85.3161C45.5843 86.5714 37.8835 85.7172 37.7562 85.6963C36.9482 85.5638 36.135 85.4608 35.3296 85.3149C34.6518 85.1922 33.9759 85.0479 33.3102 84.8717C32.4806 84.6519 31.6633 84.387 30.8386 84.1465C30.2112 83.9632 29.5628 83.835 28.9568 83.5979C27.7685 83.1333 26.593 82.6318 25.4312 82.1037C24.4836 81.6729 23.5412 81.2206 22.6378 80.7054C21.7795 80.2107 20.9493 79.6688 20.1509 79.0823C18.5729 77.9339 16.9603 76.8188 15.4821 75.5504C14.0921 74.3333 12.7765 73.0336 11.5426 71.6584C10.4993 70.5185 9.58305 69.2607 8.63041 68.0396C8.02257 67.2605 7.40747 66.4813 6.8723 65.6522C5.60312 63.7044 4.53977 61.63 3.69938 59.4623C3.02052 57.6905 2.43293 55.8803 1.88235 54.0637C1.35738 52.264 0.99467 50.4209 0.798567 48.5565C0.186192 43.5184 0.704437 38.2565 0.710028 38.2159C0.800683 37.5598 0.882271 36.9022 0.971718 36.2458C1.27226 34.1747 1.74475 32.1323 2.38428 30.1396C4.33362 23.8545 7.70864 18.1048 12.246 13.3391C13.4225 12.0909 14.6808 10.9223 16.0125 9.84118C17.5735 8.59276 19.2292 7.45373 20.9019 6.35596C23.441 4.68958 26.1968 3.44493 29.0559 2.43148C32.1552 1.3113 35.3803 0.576011 38.6589 0.242126C43.0591 -0.242466 47.3605 0.149197 47.401 0.154485ZM56.1594 33.4026C57.0283 33.2826 57.4214 33.7911 57.6441 34.3925C57.8977 35.0557 58.0694 35.7474 58.1556 36.4522C58.2423 37.2446 58.3763 38.0725 58.0285 38.8443C57.7601 39.4617 57.4538 40.0619 57.1113 40.6415C56.7249 41.2762 56.1764 41.7413 55.3888 41.7884C55.1037 41.8055 55.0318 41.9299 54.971 42.1905C54.69 43.3969 54.4176 44.6082 54.0634 45.7943C53.6513 47.1223 52.9491 48.342 52.0077 49.3651C51.8883 49.5095 51.8213 49.69 51.8174 49.8773C51.8193 50.9664 51.8504 52.0552 51.8667 53.1442C51.8782 53.9148 51.8667 54.6855 51.9007 55.4552C51.9087 55.6332 52.0181 55.8958 52.1576 55.965C53.6502 56.7065 55.1431 57.4504 56.666 58.1258C58.2 58.8065 59.7671 59.4131 61.3213 60.0486C62.5036 60.5322 63.6915 61.0021 64.8709 61.4921C66.8092 62.2975 68.766 63.0648 70.669 63.9471C71.6242 64.3899 72.483 65.0437 73.3752 65.6177C73.5881 65.7548 73.7592 65.7981 73.9071 65.5706C74.7399 64.2888 75.6144 63.0311 76.385 61.7129C77.6296 59.6019 78.6428 57.3626 79.4068 55.0341C79.9142 53.4685 80.2771 51.8523 80.6364 50.2441C81.1244 47.9881 81.3568 45.6843 81.329 43.3762C81.3168 40.8981 81.1746 38.4318 80.6461 36.0016C80.4095 34.9136 80.2334 33.8078 79.9169 32.7438C79.5236 31.4036 79.0601 30.085 78.5284 28.7934C77.6669 26.6717 76.6015 24.6386 75.3473 22.7227C74.2321 21.0493 73.0838 19.4046 71.6963 17.9448C70.8307 17.0341 69.9518 16.1315 69.0211 15.2886C68.0483 14.3928 67.0283 13.5498 65.9654 12.7631C64.6773 11.8085 63.3375 10.9257 61.9521 10.1188C59.9267 8.95677 57.7826 8.01516 55.5565 7.31003C54.3532 6.93227 53.1454 6.55557 51.9175 6.27603C50.7884 6.03466 49.6478 5.85024 48.5002 5.72344C47.3656 5.56188 46.2228 5.46477 45.0772 5.43256C43.4021 5.41745 41.7207 5.4519 40.0518 5.58593C38.5809 5.71577 37.1182 5.92567 35.6701 6.21468C34.5365 6.44019 33.4184 6.73761 32.3225 7.10513C30.9024 7.5461 29.5069 8.06235 28.1417 8.65169C26.0808 9.58098 24.082 10.6475 22.2507 11.9911C21.1494 12.7989 20.0333 13.5957 19.0039 14.4895C17.9794 15.379 17.0574 16.3861 16.086 17.3373C14.7117 18.6822 13.4946 20.1789 12.4583 21.7987C11.6024 23.1359 10.7539 24.4846 10.0106 25.8857C8.66074 28.4117 7.64895 31.1043 7.00134 33.8943C6.636 35.4848 6.2761 37.087 6.08542 38.7042C5.91319 40.2745 5.84847 41.8547 5.89172 43.4338C5.91344 45.2087 6.0345 46.9809 6.25434 48.7422C6.44683 50.198 6.85614 51.6273 7.20335 53.0599C7.74879 55.3114 8.61092 57.4537 9.6048 59.5349C10.2398 60.806 10.9396 62.0437 11.7012 63.2433C12.2136 64.0825 12.8206 64.8636 13.3823 65.6729C13.5151 65.8643 13.6347 65.9088 13.8582 65.7664C14.7869 65.1748 15.6944 64.5337 16.6771 64.0467C18.1663 63.3089 19.6989 62.6544 21.2363 62.0198C22.7211 61.4066 24.245 60.888 25.7331 60.2821C27.37 59.616 28.9941 58.9164 30.6087 58.1968C32.1732 57.5001 33.7231 56.77 35.2653 56.0253C35.3598 55.9667 35.4401 55.8877 35.5002 55.7942C35.5603 55.7006 35.5988 55.5948 35.6128 55.4845C35.6681 54.1423 35.684 52.7982 35.7061 51.4546C35.7148 50.9106 35.7124 50.3666 35.703 49.8226C35.7058 49.702 35.674 49.5831 35.6112 49.4801C35.2545 48.9892 34.8639 48.5221 34.5183 48.0239C33.7644 46.937 33.3362 45.7055 33.0225 44.4356C32.806 43.5592 32.6448 42.6704 32.4653 41.817C32.1308 41.7511 31.7703 41.7594 31.4932 41.6118C30.2486 40.9493 29.6128 39.7683 29.3779 38.4875C29.1245 37.1282 29.2839 35.7242 29.8355 34.4562C30.1116 33.8216 30.4922 33.3151 31.3323 33.3864C31.3323 33.1764 31.3481 32.9958 31.3295 32.8189C31.2217 31.7914 31.1209 30.7629 30.9888 29.7386C30.7841 28.152 30.6995 26.5893 31.1449 25.0074C31.5436 23.5453 32.2488 22.1847 33.2137 21.0161C34.1457 19.893 35.2642 18.9389 36.5202 18.1956C38.1193 17.2497 39.8962 16.6435 41.7399 16.4148C43.6008 16.1716 45.4905 16.2717 47.3152 16.7102C49.335 17.185 51.2115 18.1374 52.787 19.4877C54.1771 20.6493 55.267 22.1286 55.9646 23.8005C56.4005 24.8548 56.7352 25.9448 56.6748 27.0914C56.5865 28.7897 56.4224 30.4839 56.2863 32.1795C56.255 32.5649 56.2067 32.949 56.1592 33.4026H56.1594ZM42.9354 55.1062C43.4117 55.1062 43.8881 55.1062 44.3645 55.1062C45.1383 55.1062 45.4373 54.8002 45.4439 54.0211C45.4526 53.0966 45.4523 52.1714 45.4893 51.248C45.5512 49.7285 46.3916 48.6037 47.4196 47.5913C48.4974 46.5296 49.5943 45.4875 50.6741 44.4279C52.0802 43.0483 52.894 41.3968 52.9626 39.4032C53.0565 36.6707 51.9077 34.6255 49.5683 33.237C48.2053 32.428 46.705 32.0405 45.1437 31.9277C42.2754 31.7203 39.4829 32.1694 36.745 33.0123C36.649 33.0273 36.5627 33.0792 36.5044 33.1569C36.4461 33.2346 36.4204 33.3319 36.4328 33.4283C36.4445 34.4933 36.4328 35.5588 36.4407 36.6232C36.4442 37.0675 37.0796 37.4597 37.4935 37.3092C38.3724 36.9898 39.2431 36.6356 40.1423 36.3875C41.7617 35.9395 43.414 35.7566 45.0721 36.1676C47.0256 36.6519 47.9459 38.0716 47.5961 40.0216C47.4203 40.9342 47.0129 41.7864 46.413 42.4963C45.2806 43.8851 44.1118 45.2443 42.9662 46.6224C42.0043 47.7796 41.1217 48.9867 40.7364 50.4774C40.4328 51.6522 40.3774 52.8524 40.3889 54.0585C40.3957 54.7767 40.7146 55.1059 41.4211 55.1063C41.9258 55.1065 42.4305 55.1065 42.9354 55.1062ZM42.9184 57.8847C42.3725 57.8847 41.8266 57.8822 41.2809 57.8847C41.1635 57.8831 41.047 57.9051 40.9382 57.9494C40.8295 57.9937 40.7307 58.0593 40.6477 58.1424C40.5648 58.2256 40.4994 58.3245 40.4553 58.4333C40.4113 58.5422 40.3895 58.6588 40.3913 58.7762C40.3876 59.826 40.3876 60.8758 40.3913 61.9256C40.3868 62.0464 40.4072 62.1668 40.451 62.2794C40.4949 62.392 40.5613 62.4944 40.6462 62.5804C40.7312 62.6663 40.8328 62.734 40.9448 62.7792C41.0569 62.8244 41.177 62.8461 41.2978 62.8432C42.3756 62.8455 43.4534 62.8455 44.5312 62.8432C44.6519 62.8467 44.7721 62.8254 44.8843 62.7808C44.9965 62.7361 45.0984 62.669 45.1837 62.5835C45.269 62.498 45.3359 62.396 45.3803 62.2837C45.4247 62.1714 45.4457 62.0512 45.442 61.9305C45.4449 60.8946 45.4449 59.8587 45.442 58.8229C45.4507 58.6983 45.4328 58.5734 45.3894 58.4563C45.3461 58.3393 45.2783 58.2328 45.1906 58.1439C45.1028 58.0551 44.9972 57.986 44.8807 57.9412C44.7642 57.8964 44.6395 57.8769 44.5149 57.8841C43.9829 57.8825 43.451 57.8847 42.9184 57.8847Z" fill="#32427E"/>
</g>
<defs>
<clipPath id="clip0_1039_1601">
<rect width="86" height="86" fill="white" transform="translate(0.5)"/>
</clipPath>
</defs>
</svg>
