<svg width="92" height="108" viewBox="0 0 92 108" fill="none" xmlns="http://www.w3.org/2000/svg">
<path d="M69.0849 0.736635C66.4551 1.42625 65.3852 3.47814 66.5998 5.49429C68.1414 8.05893 72.2395 10.1457 76.7196 10.6584L77.7354 10.7826V11.6848C77.6987 13.3472 78.8602 14.5326 80.5099 14.5326C82.4508 14.5326 83.6471 12.9229 83.1763 10.9773C83.0316 10.4288 83.049 10.4118 83.8111 10.2171C88.1995 9.15589 91.9358 6.06064 91.9358 3.51387C91.9358 2.39994 91.5364 1.83359 90.3942 1.28511C89.2337 0.718769 87.9824 0.718769 86.7852 1.28511C85.1713 2.0453 83.321 4.5215 82.0341 7.63462L81.435 9.04958L80.4375 9.08532L79.4217 9.12105L78.841 8.11342C77.6621 6.0794 76.1031 4.01054 74.8152 2.82515C72.7671 0.930482 70.8985 0.24086 69.0849 0.736635Z" fill="#32427E"/>
<path d="M49.3354 16.3711C49.0268 16.5837 48.719 18.1219 48.9187 18.4756C49.0634 18.7231 50.8047 19.5369 51.6025 19.7137C52.1283 19.8379 53.1624 18.6346 53.0891 17.9977C52.9994 17.2554 49.9885 15.9637 49.3354 16.3711Z" fill="#32427E"/>
<path d="M72.7855 17.5028C72.1507 18.0861 71.6249 18.7052 71.6249 18.8642C71.6249 19.3063 72.6948 20.4739 73.1125 20.4739C73.3122 20.4739 74.001 20.0317 74.6358 19.4832C75.7423 18.5283 76.0143 18.0334 75.6516 17.5555C75.4162 17.2375 74.328 16.4058 74.1283 16.4058C74.0367 16.4058 73.4203 16.9016 72.7855 17.5028Z" fill="#32427E"/>
<path d="M44.2032 17.5912C43.17 18.6703 42.5352 20.4033 42.9886 20.9339C43.2973 21.2877 44.8206 21.1814 45.2914 20.7749C45.8355 20.28 46.4702 18.9356 46.3429 18.4756C46.1799 17.8208 45.5268 17.1133 45.0734 17.1133C44.8563 17.1133 44.4578 17.3259 44.2032 17.5912Z" fill="#32427E"/>
<path d="M54.7947 20.9688C54.4686 21.2519 54.2139 21.6057 54.2139 21.8353C54.2139 22.0479 54.54 22.7375 54.9577 23.3387L55.6831 24.4526L54.1416 24.541C53.3071 24.5937 52.5459 24.6822 52.4726 24.7536C52.4003 24.8242 52.3096 25.2842 52.2546 25.7791C52.1273 27.0878 52.2913 27.1941 54.3037 27.1941C56.3527 27.1941 56.48 27.0878 56.3527 25.638L56.2437 24.6295L57.1322 24.24C58.2744 23.7451 58.2744 23.4092 57.1863 21.7459C56.2272 20.2791 55.8105 20.138 54.7947 20.9688Z" fill="#32427E"/>
<path d="M67.1082 21.3761C65.802 22.1014 65.7846 22.1184 65.8753 22.7205C66.0026 23.4458 66.4377 24.1533 66.8544 24.3123C67.2712 24.4713 69.8103 23.1448 70.0457 22.632C70.2087 22.2961 70.1364 22.1014 69.7013 21.4824C69.4109 21.0759 68.9942 20.7222 68.8128 20.7043C68.614 20.6686 67.8519 20.9866 67.1082 21.3761Z" fill="#32427E"/>
<path d="M45.6541 23.5692C44.8563 24.4892 44.9653 24.9841 46.0892 25.5326C47.5401 26.2401 48.392 26.5054 48.7547 26.3285C49.0991 26.1338 49.5525 24.701 49.3895 24.2766C49.2448 23.9408 47.0867 22.9501 46.5243 22.968C46.3255 22.968 45.9262 23.2333 45.6541 23.5692Z" fill="#32427E"/>
<path d="M60.8337 23.7281L59.3828 24.1176V25.1252C59.4011 26.717 59.6008 26.8233 61.6865 26.2927C63.5185 25.8327 63.6091 25.7442 63.3728 24.5946C63.2638 24.0291 62.7197 23.2859 62.4294 23.3216C62.3387 23.3395 61.6315 23.5164 60.8337 23.7281Z" fill="#32427E"/>
<path d="M57.8961 27.0708C56.917 27.4245 56.8986 27.4951 57.135 29.3344C57.3704 31.2094 57.6424 31.6158 58.6949 31.6158C59.7473 31.6158 60.0185 31.3684 60.0185 30.4135C60.0185 29.2995 59.6741 27.354 59.4377 27.0708C59.2014 26.7876 58.6756 26.7876 57.8961 27.0708Z" fill="#32427E"/>
<path d="M11.0603 53.9711C8.3582 54.3248 6.45388 55.2619 4.44056 57.2432C2.82661 58.7993 1.90147 60.3206 1.32166 62.284C1.01298 63.3631 0.995572 64.477 0.995572 80.5893C0.995572 99.5842 0.941529 98.5587 2.21107 101.194C3.55298 103.953 6.4548 106.27 9.61034 107.154C10.7352 107.455 12.1678 107.472 38.6267 107.472C65.0865 107.472 66.5191 107.454 67.643 107.154C71.5424 106.075 74.861 102.856 75.8768 99.1599C76.0398 98.5766 76.2212 97.0553 76.2935 95.7645L76.4025 93.4303L64.1797 93.3776L51.9569 93.3249L50.5427 92.847C46.5527 91.5205 43.4512 88.4958 42.1092 84.6225C41.6742 83.3844 41.6375 82.9779 41.6375 80.6786C41.6375 78.3793 41.6742 77.9728 42.1092 76.7347C42.7797 74.807 43.9229 73.0026 45.4278 71.5706C46.9502 70.119 48.4918 69.1811 50.5042 68.5093L51.9551 68.0314L64.1779 67.9787L76.4007 67.926L76.2917 65.5919C76.2193 64.3011 76.038 62.7798 75.8749 62.1965C74.8774 58.5527 71.6129 55.3521 67.7319 54.2203C66.6978 53.9193 65.0838 53.9023 39.3503 53.8665C24.3356 53.8478 11.6044 53.9005 11.0603 53.9711Z" fill="#32427E"/>
<path d="M53.134 70.9498C48.2189 71.6752 44.6099 75.7253 44.5559 80.5884C44.5193 85.0102 47.3304 88.7236 51.7738 90.1037C53.025 90.4932 53.1524 90.4932 65.1938 90.4932C79.1038 90.4932 78.3967 90.5638 79.865 88.9719C81.37 87.3452 82.0047 84.869 82.0047 80.6768C82.0047 76.5034 81.37 74.0093 79.8824 72.3996C78.3949 70.7729 79.1386 70.8605 65.8277 70.8435C59.3911 70.8265 53.6781 70.8792 53.134 70.9498ZM56.3986 76.8044C57.4501 77.2645 57.9768 77.7415 58.5026 78.7679C59.283 80.2534 58.9743 82.4116 57.7954 83.6667C56.3262 85.2228 53.1707 85.2942 51.5384 83.8078C49.9061 82.3223 49.8154 79.3333 51.3754 77.6888C52.4809 76.5213 54.8203 76.0969 56.3986 76.8044Z" fill="#32427E"/>
<path d="M66.1539 38.387L68.0428 50.4891L9.27512 50.75C8.99811 50.75 8.36495 50.7104 7.69922 50.4891C3.3276 48.3622 5.46884 45.2929 10.9737 44.0793C24.0866 41.1886 51.921 35.2817 58.3559 34.7788C64.9383 34.2645 66.0993 37.8689 66.1539 38.387Z" fill="#32427E"/>
</svg>
