<svg xmlns="http://www.w3.org/2000/svg" xmlns:xlink="http://www.w3.org/1999/xlink" width="20px" height="20px" viewBox="0 0 20 20" version="1.1">
    <title>Logo</title>
    <g id="GNB" stroke="none" stroke-width="1" transform="translate(-4, -4) scale(1.2 1.2)">
        <g id="GNB---Earn-1" transform="translate(-100.000000, -18.000000)">
            <g id="GNB">
                <g id="Group" transform="translate(100.000000, 18.000000)">
                    <g id="Logo">
                        <path d="M18.9787018,14.348244 C19.5787018,15.448244 19.1787018,16.848244 18.1787018,17.448244 C17.0787018,18.048244 15.6787018,17.648244 15.0787018,16.648244 L10.2787018,8.44824401 C9.67870181,7.34824401 10.0787018,5.94824401 11.1787018,5.34824401 C12.2787018,4.64824401 13.5787018,5.04824401 14.2787018,6.14824401 L18.9787018,14.348244 Z" id="Path" opacity="0.4"/>
                        <path d="M9.54824401,16.648244 C8.94824401,17.748244 7.54824401,18.148244 6.44824401,17.448244 C5.34824401,16.848244 4.94824401,15.448244 5.64824401,14.348244 L10.348244,6.14824401 C10.948244,5.04824401 12.348244,4.64824401 13.448244,5.34824401 C14.548244,5.94824401 14.948244,7.34824401 14.248244,8.44824401 L9.54824401,16.648244 Z" id="Path" opacity="0.65"/>
                        <path d="M14.55,7.3 C14.55,8.6 12.25,11.8 12.25,11.8 C12.25,11.8 10.05,8.6 10.05,7.3 C10.05,6 11.05,5 12.35,5 C13.65,5 14.55,6.1 14.55,7.3 Z" id="Path"/>
                    </g>
                </g>
            </g>
        </g>
    </g>
</svg>