<svg width="20" height="18" viewBox="0 0 20 18" fill="none" xmlns="http://www.w3.org/2000/svg">
<path d="M8.49432 16.8975L9.22581 16.166C9.39894 15.9928 9.39894 15.7121 9.22581 15.539L3.4944 9.80759H19.5571C19.802 9.80759 20.0005 9.60908 20.0005 9.36424V8.32976C20.0005 8.08492 19.802 7.88641 19.5571 7.88641H3.4944L9.22581 2.155C9.39894 1.98187 9.39894 1.70115 9.22581 1.52799L8.49432 0.796533C8.32119 0.623405 8.04048 0.623405 7.86731 0.796533L0.130334 8.53351C-0.0427938 8.70664 -0.0427938 8.98736 0.130334 9.16052L7.86731 16.8975C8.04044 17.0706 8.32116 17.0706 8.49432 16.8975Z" fill="white"/>
</svg>
