<svg width="20" height="28" viewBox="0 0 20 28" xmlns="http://www.w3.org/2000/svg">
<path d="M9.58276 27.712L6.35683 25.3741C6.10254 25.1898 6.28504 24.8761 6.64148 24.8761L9.0621 24.8759L9.0621 21.7131C9.0621 21.552 9.24235 21.4214 9.46467 21.4214L10.5353 21.4211C10.7576 21.4211 10.9378 21.5518 10.9378 21.7129V24.8757L13.3587 24.8759C13.7171 24.876 13.8962 25.1908 13.6433 25.374L10.4175 27.7117C10.2603 27.8257 9.73996 27.8259 9.58276 27.712Z"/>
<path d="M8.81276 10.2927C9.05276 10.3927 9.31943 10.4927 9.61276 10.5927L10.0328 10.7327C10.2261 10.7994 10.3761 10.8694 10.4828 10.9427C10.5894 11.0094 10.6428 11.1094 10.6428 11.2427C10.6428 11.376 10.5761 11.4927 10.4428 11.5927C10.3094 11.6927 10.0794 11.7427 9.75276 11.7427C9.43276 11.7427 9.13609 11.6894 8.86276 11.5827C8.59609 11.476 8.36943 11.3494 8.18276 11.2027C8.04943 11.276 7.92609 11.3827 7.81276 11.5227C7.69943 11.656 7.64276 11.8194 7.64276 12.0127C7.64276 12.1727 7.68276 12.316 7.76276 12.4427C7.84276 12.5694 7.95276 12.6794 8.09276 12.7727C8.23943 12.866 8.40943 12.9427 8.60276 13.0027C8.80276 13.0627 9.02276 13.106 9.26276 13.1327V13.2327C9.26276 13.526 9.33609 13.716 9.48276 13.8027C9.62943 13.896 9.83276 13.9427 10.0928 13.9427C10.2261 13.9427 10.3561 13.9327 10.4828 13.9127C10.6094 13.8927 10.7028 13.876 10.7628 13.8627V13.0627C11.3161 12.9494 11.7361 12.736 12.0228 12.4227C12.3094 12.1027 12.4528 11.716 12.4528 11.2627C12.4528 10.7294 12.2828 10.3094 11.9428 10.0027C11.6094 9.68935 11.1294 9.43269 10.5028 9.23269L9.97276 9.06269C9.79943 9.00935 9.66943 8.95269 9.58276 8.89268C9.49609 8.82602 9.45276 8.74269 9.45276 8.64268C9.45276 8.51602 9.52276 8.41269 9.66276 8.33269C9.80276 8.24602 10.0228 8.20269 10.3228 8.20269C10.6161 8.20269 10.8861 8.23935 11.1328 8.31269C11.3794 8.37935 11.5761 8.45935 11.7228 8.55269C11.8361 8.46602 11.9328 8.36269 12.0128 8.24269C12.0928 8.11602 12.1328 7.96602 12.1328 7.79269C12.1328 7.51269 12.0061 7.29269 11.7528 7.13269C11.5061 6.97269 11.1761 6.86602 10.7628 6.81269V6.68269C10.7628 6.38935 10.6894 6.19935 10.5428 6.11269C10.3961 6.01935 10.1928 5.97269 9.93276 5.97269C9.79943 5.97269 9.66943 5.98269 9.54276 6.00269C9.41609 6.02269 9.32276 6.03935 9.26276 6.05268V6.86269C8.74276 6.97602 8.34276 7.18935 8.06276 7.50269C7.78276 7.80935 7.64276 8.18935 7.64276 8.64268C7.64276 8.93602 7.68943 9.18602 7.78276 9.39268C7.88276 9.59269 8.01943 9.76602 8.19276 9.91269C8.36609 10.0594 8.57276 10.186 8.81276 10.2927Z"/>
<path fill-rule="evenodd" clip-rule="evenodd" d="M20 9.93958C20 15.4291 15.5228 19.8792 10 19.8792C4.47715 19.8792 0 15.4291 0 9.93958C0 4.4501 4.47715 0 10 0C15.5228 0 20 4.4501 20 9.93958ZM18 9.93958C18 14.3131 14.4297 17.8792 10 17.8792C5.57028 17.8792 2 14.3131 2 9.93958C2 5.56608 5.57028 2 10 2C14.4297 2 18 5.56608 18 9.93958Z" />
</svg>
