<svg width="21" height="19" viewBox="0 0 21 19" fill="none" xmlns="http://www.w3.org/2000/svg">
<path d="M20.675 7.90843L12.1205 0.879954C11.7709 0.588303 11.3301 0.428558 10.8748 0.428558C10.4195 0.428558 9.97871 0.588303 9.62914 0.879954L1.07497 7.90843C1.01902 7.95525 0.972843 8.01264 0.939071 8.07732C0.9053 8.14199 0.884599 8.21269 0.878151 8.28536C0.871702 8.35804 0.879632 8.43127 0.901488 8.50088C0.923344 8.57049 0.958697 8.63512 1.00553 8.69106L1.36109 9.11815C1.45565 9.23104 1.59117 9.30178 1.73786 9.3148C1.88455 9.32782 2.03041 9.28207 2.14338 9.18759L3.0972 8.40461V10.4286H3.08643V17.6508C3.08762 17.7984 3.14701 17.9395 3.25169 18.0435C3.35637 18.1476 3.49788 18.2061 3.64546 18.2063H18.0972C18.2445 18.2063 18.3858 18.1478 18.49 18.0436C18.5942 17.9394 18.6528 17.7981 18.6528 17.6508V8.40461L19.6076 9.18898C19.7206 9.28345 19.8664 9.32921 20.0131 9.31619C20.1598 9.30317 20.2953 9.23243 20.3899 9.11954L20.7462 8.69245C20.7931 8.63636 20.8285 8.57155 20.8503 8.50174C20.8722 8.43193 20.88 8.3585 20.8734 8.28566C20.8668 8.21281 20.8459 8.14199 20.8118 8.07725C20.7778 8.01252 20.7313 7.95514 20.675 7.90843ZM16.9861 8.20634H16.9788V16.5397H13.0972V11.5397C13.0972 11.245 12.9801 10.9624 12.7718 10.754C12.5634 10.5456 12.2808 10.4286 11.9861 10.4286H9.76386C9.46918 10.4286 9.18656 10.5456 8.97819 10.754C8.76982 10.9624 8.65275 11.245 8.65275 11.5397V16.5397H4.7531V7.18134L4.76386 7.17266V7.03377L10.875 2.01363L16.9861 7.03516V8.20634Z" fill="#0E1E59"/>
</svg>
