<svg width="21" height="20" viewBox="0 0 21 20" fill="none" xmlns="http://www.w3.org/2000/svg">
<path transform="translate(0 2)" d="M5.0957 8.8457C5.33984 9.08984 5.73555 9.08984 5.97969 8.8457L8 6.82578L11.3082 10.134C11.5523 10.3781 11.948 10.3781 12.1922 10.134L16.4977 5.82812L17.6496 6.98047C18.2402 7.57109 19.25 7.15273 19.25 6.31758V2.375C19.25 2.02969 18.9703 1.75 18.625 1.75H14.6824C13.8473 1.75 13.4289 2.75977 14.0195 3.35039L15.1719 4.50234L11.75 7.92422L8.4418 4.61602C8.19766 4.37187 7.80195 4.37187 7.55781 4.61602L4.65391 7.51992C4.40977 7.76406 4.40977 8.15977 4.65391 8.40391L5.0957 8.8457ZM19.875 13.625H2.375V1.125C2.375 0.779687 2.09531 0.5 1.75 0.5H1.125C0.779687 0.5 0.5 0.779687 0.5 1.125V14.25C0.5 14.9402 1.05977 15.5 1.75 15.5H19.875C20.2203 15.5 20.5 15.2203 20.5 14.875V14.25C20.5 13.9047 20.2203 13.625 19.875 13.625Z" />
</svg>
