<svg width="19" height="20" viewBox="0 0 19 20" fill="none" xmlns="http://www.w3.org/2000/svg">
<path d="M9.5834 20C10.9631 20 12.0822 18.8809 12.0822 17.5H7.08457C7.08457 18.8809 8.20371 20 9.5834 20ZM17.9971 14.152C17.2424 13.341 15.8303 12.1211 15.8303 8.125C15.8303 5.08984 13.7022 2.66016 10.8326 2.06406V1.25C10.8326 0.559766 10.2732 0 9.5834 0C8.89356 0 8.33418 0.559766 8.33418 1.25V2.06406C5.46465 2.66016 3.33653 5.08984 3.33653 8.125C3.33653 12.1211 1.92442 13.341 1.16973 14.152C0.935354 14.4039 0.831448 14.7051 0.833401 15C0.837698 15.6406 1.34043 16.25 2.08731 16.25H17.0795C17.8264 16.25 18.3295 15.6406 18.3334 15C18.3354 14.7051 18.2314 14.4035 17.9971 14.152Z" fill="white"/>
</svg>
