<svg width="19" height="19" viewBox="0 0 19 19" fill="none" xmlns="http://www.w3.org/2000/svg">
<path d="M0.666748 8.33334H8.16675V0.833344H0.666748V8.33334ZM3.16675 3.33334H5.66675V5.83334H3.16675V3.33334ZM10.6667 0.833344V8.33334H18.1667V0.833344H10.6667ZM15.6667 5.83334H13.1667V3.33334H15.6667V5.83334ZM0.666748 18.3333H8.16675V10.8333H0.666748V18.3333ZM3.16675 13.3333H5.66675V15.8333H3.16675V13.3333ZM16.9167 10.8333H18.1667V15.8333H14.4167V14.5833H13.1667V18.3333H10.6667V10.8333H14.4167V12.0833H16.9167V10.8333ZM16.9167 17.0833H18.1667V18.3333H16.9167V17.0833ZM14.4167 17.0833H15.6667V18.3333H14.4167V17.0833Z"/>
</svg>
