<svg width="19" height="17" viewBox="0 0 19 17" fill="none" xmlns="http://www.w3.org/2000/svg">
<path d="M9.2364 9.2908L5.79317 5.84758C5.52175 5.57616 5.71654 5.11406 6.09699 5.11406L8.68067 5.11381L8.68067 0.679688C8.68067 0.442393 8.87306 0.25 9.11036 0.25H9.96973C10.207 0.25 10.3994 0.442393 10.3994 0.679688L10.3994 5.11381L12.9833 5.11417C13.3659 5.11421 13.557 5.57784 13.2872 5.84768L9.84408 9.29077C9.67629 9.4586 9.40419 9.45863 9.2364 9.2908Z" fill="white"/>
<path d="M17.8406 10.9128C17.4821 10.5877 16.9231 10.6089 16.5464 10.9128L13.7393 13.158C13.396 13.4345 12.9676 13.5833 12.524 13.5833H8.93006C8.66271 13.5833 8.44397 13.3646 8.44397 13.0972C8.44397 12.8299 8.66271 12.6111 8.93006 12.6111H11.3088C11.7919 12.6111 12.2415 12.2799 12.3205 11.803C12.4208 11.1953 11.9529 10.6667 11.3605 10.6667H6.49964C5.67937 10.6667 4.88645 10.9492 4.24846 11.4657L2.83578 12.6111H1.15271C0.885364 12.6111 0.666626 12.8299 0.666626 13.0972V16.0139C0.666626 16.2812 0.885364 16.5 1.15271 16.5H11.9924C12.4329 16.5 12.8613 16.3511 13.2076 16.0747L17.8011 12.3984C18.2629 12.0308 18.2993 11.326 17.8406 10.9128Z" fill="white"/>
</svg>
