<svg width="18" height="20" viewBox="0 0 18 20" fill="none" xmlns="http://www.w3.org/2000/svg">
<path d="M17.3229 6.25C17.5807 6.25 17.7917 6.03906 17.7917 5.78125V4.21875C17.7917 3.96094 17.5807 3.75 17.3229 3.75H16.5417V1.875C16.5417 0.839844 15.7018 0 14.6667 0H2.16669C1.13153 0 0.291687 0.839844 0.291687 1.875V18.125C0.291687 19.1602 1.13153 20 2.16669 20H14.6667C15.7018 20 16.5417 19.1602 16.5417 18.125V16.25H17.3229C17.5807 16.25 17.7917 16.0391 17.7917 15.7812V14.2188C17.7917 13.9609 17.5807 13.75 17.3229 13.75H16.5417V11.25H17.3229C17.5807 11.25 17.7917 11.0391 17.7917 10.7812V9.21875C17.7917 8.96094 17.5807 8.75 17.3229 8.75H16.5417V6.25H17.3229ZM8.41669 5C9.79559 5 10.9167 6.12109 10.9167 7.5C10.9167 8.87891 9.79559 10 8.41669 10C7.03778 10 5.91669 8.87891 5.91669 7.5C5.91669 6.12109 7.03778 5 8.41669 5ZM12.7917 14.25C12.7917 14.6641 12.4011 15 11.9167 15H4.91669C4.43231 15 4.04169 14.6641 4.04169 14.25V13.5C4.04169 12.2578 5.21747 11.25 6.66669 11.25H6.862C7.34247 11.4492 7.86591 11.5625 8.41669 11.5625C8.96747 11.5625 9.49481 11.4492 9.97137 11.25H10.1667C11.6159 11.25 12.7917 12.2578 12.7917 13.5V14.25Z" fill="#98A0BD"/>
</svg>
