<svg width="18" height="15" viewBox="0 0 18 15" fill="none" xmlns="http://www.w3.org/2000/svg">
<path d="M17.0119 2.41666H1.23805C0.991514 2.41666 0.791626 2.21677 0.791626 1.97023V0.779757C0.791626 0.533217 0.991514 0.333328 1.23805 0.333328H17.0119C17.2584 0.333328 17.4583 0.533217 17.4583 0.779757V1.97023C17.4583 2.21677 17.2584 2.41666 17.0119 2.41666ZM17.0119 8.36904H1.23805C0.991514 8.36904 0.791626 8.16915 0.791626 7.92261V6.73214C0.791626 6.4856 0.991514 6.28571 1.23805 6.28571H17.0119C17.2584 6.28571 17.4583 6.4856 17.4583 6.73214V7.92261C17.4583 8.16915 17.2584 8.36904 17.0119 8.36904ZM17.0119 14.3214H1.23805C0.991514 14.3214 0.791626 14.1215 0.791626 13.875V12.6845C0.791626 12.438 0.991514 12.2381 1.23805 12.2381H17.0119C17.2584 12.2381 17.4583 12.438 17.4583 12.6845V13.875C17.4583 14.1215 17.2584 14.3214 17.0119 14.3214Z" />
</svg>
