<svg width="19" height="16" viewBox="0 0 19 16" fill="none" xmlns="http://www.w3.org/2000/svg">
<path d="M18.4158 4.67707L14.9726 8.1203C14.7012 8.39172 14.2391 8.19693 14.2391 7.81647L14.2389 5.2328H0.638061C0.400767 5.2328 0.208374 5.04041 0.208374 4.80311V3.94374C0.208374 3.70644 0.400767 3.51405 0.638061 3.51405H14.2389L14.2392 0.930123C14.2392 0.547593 14.7029 0.356418 14.9727 0.626298L18.4158 4.06938C18.5836 4.23718 18.5837 4.50928 18.4158 4.67707ZM0.334237 11.5525L3.77732 14.9956C4.04717 15.2654 4.5108 15.0743 4.51083 14.6917L4.51119 12.1078H18.112C18.3493 12.1078 18.5417 11.9154 18.5417 11.6781V10.8187C18.5417 10.5814 18.3493 10.389 18.112 10.389H4.51123L4.51098 7.80541C4.51098 7.42496 4.04888 7.23013 3.77747 7.50158L0.334237 10.9448C0.166408 11.1126 0.166444 11.3847 0.334237 11.5525Z"/>
</svg>
