<svg width="20" height="14" viewBox="0 0 20 14" fill="none" xmlns="http://www.w3.org/2000/svg">
<path d="M17.5 3.66668C17.5 5.50782 16.0078 7.00001 14.1666 7.00001C12.3255 7.00001 10.8333 5.50782 10.8333 3.66668C10.8333 1.82553 12.3255 0.333344 14.1666 0.333344C16.0078 0.333344 17.5 1.82553 17.5 3.66668Z" fill="white"/>
<path d="M16.0651 7.83334H16.5C18.4323 7.83334 20 9.40105 20 11.3333V12.4167C20 13.1068 19.4401 13.6667 18.75 13.6667H9.5833C8.8932 13.6667 8.3333 13.1068 8.3333 12.4167V11.3333C8.3333 9.40105 9.90101 7.83334 11.8333 7.83334H12.2682C12.8489 8.09897 13.4896 8.25001 14.1666 8.25001C14.8437 8.25001 15.4869 8.09897 16.0651 7.83334Z" fill="white"/>
<path d="M9.16422 6.05363L5.72099 9.49686C5.44957 9.76828 4.98747 9.57349 4.98747 9.19303L4.98723 6.60936L0.553101 6.60936C0.315806 6.60936 0.123413 6.41697 0.123413 6.17967V5.3203C0.123413 5.083 0.315806 4.89061 0.553101 4.89061L4.98723 4.89061L4.98758 2.30668C4.98762 1.92415 5.45125 1.73298 5.7211 2.00286L9.16418 5.44594C9.33201 5.61374 9.33205 5.88584 9.16422 6.05363Z" fill="white"/>
</svg>
