<svg viewBox="0 0 800 800" fill="none" xmlns="http://www.w3.org/2000/svg">
<path d="M291.262 470.9L486.262 268.2C501.162 253.3 524.462 254.4 539.962 269.9L652.662 378.5C664.562 390 664.362 412.8 653.262 425C638.862 439.4 622.562 440.5 600.562 425.5L518.862 337L313.562 532.4C299.862 543 285.762 552 264.162 538.2C256.762 528.2 271.462 508.7 265.662 502.9L291.262 470.9Z"/>
<path d="M282.363 538.9C265.663 538.4 252.663 527.5 252.663 514.6L253.663 282.9C253.663 270.1 265.663 254.5 282.363 254C304.563 254 314.263 271.9 314.263 285.3V515.3C314.263 528.6 299.863 539.4 282.363 538.9Z"/>
<path d="M509.862 545.3C489.162 545.3 480.562 530 480.562 517.9V305.4C480.562 293.4 493.362 278.8 509.862 278.3C527.162 277.8 541.463 292.3 541.463 304.8V515C541.363 529.8 531.162 545.3 509.862 545.3Z"/>
<path fill-rule="evenodd" clip-rule="evenodd" d="M190.363 380.2L252.663 442.86V285.5C252.663 272.7 262.663 257.1 275.463 256.6C288.863 256.1 299.963 271.5 299.963 284.9V431.437L300.063 428C300.063 428 302.063 442.1 314.363 423.9V431.494L483.763 270.2C495.463 259.1 513.663 259.1 525.263 270.3L637.863 378.9C649.763 390.4 650.062 409.4 638.663 421.4C627.263 433.4 608.163 433.6 596.163 422.2L541.363 369.425V377.2C529.818 358.998 527.505 365.082 527.063 367.447V515.6C526.963 528.6 516.463 543.9 503.363 543.9C490.363 543.9 479.663 528.7 479.663 515.6V374.24L469.562 383.8C469.562 383.8 473.262 363.2 462.662 373.2C462.092 373.744 461.63 374.155 461.266 374.447L296.963 530.9C296.115 531.733 295.227 532.502 294.306 533.207C289.79 538.497 282.989 541.781 275.463 541.5C268.804 541.24 262.903 538.166 258.774 533.459C257.499 532.52 256.29 531.467 255.163 530.3L147.763 422.6C136.063 410.8 136.063 391.9 147.863 380.1C159.663 368.4 178.563 368.4 190.363 380.2Z"/>
</svg>
